<?xml version="1.0" encoding="UTF-8"?>
<svg width="26px" height="26px" viewBox="0 0 26 26" version="1.1" xmlns="http://www.w3.org/2000/svg" xmlns:xlink="http://www.w3.org/1999/xlink">
    <title>icon_myaccount</title>
    <g id="Navigations-and-Footers" stroke="none" stroke-width="1" fill="none" fill-rule="evenodd">
        <g id="Navigations" transform="translate(-1336.000000, -519.000000)" fill="#242424" stroke="#242424">
            <g id="Desktop" transform="translate(90.000000, 160.000000)">
                <g id="Nav_Default_D" transform="translate(0.000000, 338.000000)">
                    <g id="Icon_User" transform="translate(1247.000000, 22.000000)">
                        <path d="M19.5876226,19.4513208 C18.9400755,17.301283 17.2569057,15.6393962 15.138566,14.9959245 C16.3005283,14.0644528 17.0259623,12.6434717 17.0259623,11.0635472 C17.0259623,8.28045283 14.7713208,6.01630189 12,6.01630189 C9.22822642,6.01630189 6.97358491,8.27728302 6.97358491,11.0567547 C6.97358491,12.6398491 7.6994717,14.0630943 8.86188679,14.9954717 C6.74309434,15.6384906 5.0594717,17.3008302 4.41192453,19.4513208 C2.52498113,17.5299623 1.35849057,14.8994717 1.35849057,12 C1.35849057,6.13222642 6.13222642,1.35849057 12,1.35849057 C17.8677736,1.35849057 22.6415094,6.13222642 22.6415094,12 C22.6415094,14.8994717 21.474566,17.5299623 19.5876226,19.4513208 M12.5904906,14.7038491 L11.4095094,14.7038491 C9.65116981,14.3918491 8.33207547,12.8332075 8.33207547,11.0567547 C8.33207547,9.02671698 9.97720755,7.37479245 12,7.37479245 C14.0223396,7.37479245 15.6674717,9.02988679 15.6674717,11.0635472 C15.6674717,12.8653585 14.3764528,14.3882264 12.5904906,14.7038491 M5.56890566,20.4710943 C6.01177358,17.9343396 8.20211321,16.0623396 10.8126792,16.0623396 L11.2876981,16.0623396 L11.2876981,16.0537358 L12.7023396,16.0623396 L12.7118491,16.0605283 L12.7118491,16.0623396 L13.1868679,16.0623396 C15.7969811,16.0623396 17.9873208,17.9338868 18.4306415,20.4710943 C16.6428679,21.8318491 14.4144906,22.6415094 12,22.6415094 C9.5850566,22.6415094 7.35667925,21.8318491 5.56890566,20.4710943 M12,0 C5.38279245,0 0,5.38324528 0,12 C0,18.6167547 5.38279245,24 12,24 C18.6167547,24 24,18.6167547 24,12 C24,5.38324528 18.6167547,0 12,0" id="icon_myaccount"></path>
                    </g>
                </g>
            </g>
        </g>
    </g>
</svg>